<?xml version="1.0" encoding="utf-8"?>
<!-- Generator: Adobe Illustrator 16.0.0, SVG Export Plug-In . SVG Version: 6.00 Build 0)  -->
<!DOCTYPE svg PUBLIC "-//W3C//DTD SVG 1.1//EN" "http://www.w3.org/Graphics/SVG/1.1/DTD/svg11.dtd">
<svg version="1.1" id="Layer_1" xmlns="http://www.w3.org/2000/svg" xmlns:xlink="http://www.w3.org/1999/xlink" x="0px" y="0px"
	 width="16px" height="16px" viewBox="0 0 16 16" enable-background="new 0 0 16 16" xml:space="preserve">
<circle cx="8.011" cy="8.062" r="6.989"/>
<path fill="#FFFFFF" d="M6.761,7.263V4.899h3.503c0,0,0.442-0.188,0.442-0.63c0-0.441-0.426-0.611-0.426-0.611H6.217
	c0,0-0.901,0.34-0.901,1.377s0,6.699,0,6.699s0.085,0.731,0.681,0.731c0.595,0,0.73-0.171,0.73-0.697c0-0.527,0-3.384,0-3.384h2.619
	c0,0,0.391-0.17,0.391-0.493S9.702,7.263,9.413,7.263S6.761,7.263,6.761,7.263z"/>
</svg>
